<?xml version="1.0" encoding="iso-8859-1"?>
<!-- Uploaded to: SVG Repo, www.svgrepo.com, Generator: SVG Repo Mixer Tools -->
<svg version="1.1" id="Layer_1" xmlns="http://www.w3.org/2000/svg" xmlns:xlink="http://www.w3.org/1999/xlink" 
	 viewBox="0 0 512 512" xml:space="preserve">
<path style="fill:#E6E7E8;" d="M501.551,367.172V58.493V31.93L466.395,78.97l-35.152-45.157L396.145,78.97l-35.087-45.157
	L325.974,78.97l-35.04-45.157l-35.09,45.157l-35.081-45.157L185.692,78.97l-35.05-45.157L115.569,78.97l-35.04-45.157L45.471,78.97
	L10.449,31.93l0.006,26.562v395.515c0,14.473,11.598,26.063,25.908,26.063h352.29L501.551,367.172z"/>
<path style="fill:#BCBEC0;" d="M501.551,367.172h-63.962l-24.09,0.001c-13.721-0.002-24.845,11.122-24.845,24.847v88.05
	L501.551,367.172z"/>
<rect x="55.343" y="119.276" style="fill:#0084FF;" width="401.283" height="56.445"/>
<rect x="55.343" y="221.999" style="fill:#7A51CC;" width="213.138" height="213.138"/>
<path d="M305.465,224.275h-4.678c-5.771,0-10.449,4.678-10.449,10.449s4.678,10.449,10.449,10.449h4.678
	c5.771,0,10.449-4.678,10.449-10.449S311.236,224.275,305.465,224.275z"/>
<path d="M456.62,224.275H339.269c-5.771,0-10.449,4.678-10.449,10.449s4.678,10.449,10.449,10.449H456.62
	c5.771,0,10.449-4.678,10.449-10.449S462.391,224.275,456.62,224.275z"/>
<path d="M305.465,258.552h-4.678c-5.771,0-10.449,4.678-10.449,10.449c0,5.771,4.678,10.449,10.449,10.449h4.678
	c5.771,0,10.449-4.678,10.449-10.449C315.914,263.23,311.236,258.552,305.465,258.552z"/>
<path d="M456.62,258.552H339.269c-5.771,0-10.449,4.678-10.449,10.449c0,5.771,4.678,10.449,10.449,10.449H456.62
	c5.771,0,10.449-4.678,10.449-10.449C467.069,263.23,462.391,258.552,456.62,258.552z"/>
<path d="M305.465,293.034h-4.678c-5.771,0-10.449,4.678-10.449,10.449c0,5.771,4.678,10.449,10.449,10.449h4.678
	c5.771,0,10.449-4.678,10.449-10.449S311.236,293.034,305.465,293.034z"/>
<path d="M456.62,293.034H339.269c-5.771,0-10.449,4.678-10.449,10.449c0,5.771,4.678,10.449,10.449,10.449H456.62
	c5.771,0,10.449-4.678,10.449-10.449S462.391,293.034,456.62,293.034z"/>
<path d="M504.847,22.015c-4.272-1.419-8.971,0.055-11.666,3.66l-26.954,36.066l-26.737-34.348c-1.98-2.543-5.023-4.03-8.245-4.03
	c-0.001,0-0.003,0-0.004,0c-3.225,0.001-6.267,1.491-8.246,4.036l-26.847,34.541L369.31,27.402
	c-1.979-2.547-5.025-4.039-8.251-4.039c-3.227,0-6.271,1.49-8.252,4.039l-26.828,34.53l-26.79-34.524
	c-1.979-2.55-5.024-4.043-8.252-4.044c-0.002,0-0.002,0-0.003,0c-3.226,0-6.271,1.49-8.252,4.037l-26.838,34.538l-26.831-34.537
	c-1.98-2.549-5.026-4.039-8.253-4.039s-6.273,1.491-8.252,4.04l-26.816,34.529l-26.799-34.526c-1.979-2.55-5.025-4.042-8.253-4.043
	h-0.001c-3.227,0-6.273,1.491-8.252,4.04l-26.817,34.527L88.785,27.407c-1.979-2.551-5.026-4.043-8.254-4.044
	c-0.001,0-0.001,0-0.002,0c-3.228,0-6.274,1.492-8.254,4.042l-26.63,34.302L18.83,25.691c-2.69-3.613-7.394-5.095-11.668-3.679
	C2.886,23.429,0,27.427,0,31.93l0.006,422.076c0,20.133,16.31,36.512,36.357,36.512h352.29c2.771,0,5.429-1.101,7.388-3.061
	L508.939,374.56c1.959-1.959,3.06-4.616,3.06-7.388V31.93C512,27.43,509.118,23.434,504.847,22.015z M20.904,454.008L20.898,63.463
	L37.089,85.21c1.95,2.619,5.011,4.175,8.276,4.209c3.279,0.048,6.356-1.462,8.359-4.041l26.803-34.523l26.786,34.521
	c1.979,2.55,5.025,4.043,8.253,4.044c0.001,0,0.002,0,0.002,0c3.227,0,6.274-1.491,8.253-4.04l26.818-34.529l26.799,34.526
	c1.979,2.55,5.025,4.042,8.253,4.043c0.001,0,0.001,0,0.001,0c3.227,0,6.273-1.491,8.253-4.04l26.819-34.533l26.829,34.534
	c1.98,2.547,5.025,4.039,8.251,4.039h0.001c3.226,0,6.271-1.49,8.251-4.037l26.833-34.532l26.791,34.527
	c1.979,2.55,5.025,4.043,8.252,4.044c0.001,0,0.001,0,0.003,0c3.226,0,6.271-1.49,8.25-4.039l26.834-34.537l26.836,34.537
	c1.979,2.547,5.024,4.037,8.25,4.039c0.001,0,0.001,0,0.001,0c3.226,0,6.27-1.49,8.251-4.036l26.854-34.551l26.901,34.557
	c2.002,2.571,5.093,4.07,8.348,4.03c3.259-0.032,6.316-1.583,8.267-4.193l16.338-21.861v293.357l-77.601,0.001
	c-0.002,0-0.003,0-0.005,0c-9.425,0-18.287,3.671-24.952,10.336c-6.666,6.666-10.338,15.53-10.338,24.959v77.601H36.363
	C27.839,469.621,20.904,462.617,20.904,454.008z M476.325,377.622l-77.222,77.222V392.02c0-3.847,1.497-7.464,4.217-10.183
	c2.719-2.719,6.332-4.215,10.177-4.215c0.001,0,0.001,0,0.001,0H476.325z"/>
<path d="M55.343,186.17H456.62c5.771,0,10.449-4.678,10.449-10.449v-56.446c0-5.771-4.678-10.449-10.449-10.449H55.343
	c-5.771,0-10.449,4.678-10.449,10.449v56.446C44.894,181.492,49.572,186.17,55.343,186.17z M65.792,129.722h380.379v35.548H65.792
	V129.722z"/>
<path d="M161.912,391.614c34.762,0,63.043-28.281,63.043-63.043c0-5.771-4.678-10.449-10.449-10.449h-46.804
	c-5.771,0-10.449,4.678-10.449,10.449c0,5.771,4.678,10.449,10.449,10.449h35.045c-4.66,18.201-21.201,31.696-40.835,31.696
	c-23.239,0-42.145-18.906-42.145-42.145c0-23.238,18.906-42.145,42.145-42.145c10.008,0,19.708,3.567,27.312,10.046
	c4.393,3.743,10.988,3.214,14.73-1.178c3.743-4.393,3.215-10.988-1.178-14.73c-11.381-9.696-25.894-15.036-40.864-15.036
	c-34.762,0-63.043,28.281-63.043,63.043S127.15,391.614,161.912,391.614z"/>
<path d="M268.48,211.554H55.343c-5.771,0-10.449,4.678-10.449,10.449V435.14c0,5.771,4.678,10.449,10.449,10.449h213.138
	c5.771,0,10.449-4.678,10.449-10.449V222.003C278.929,216.232,274.251,211.554,268.48,211.554z M258.031,424.691H65.792V232.452
	h192.239V424.691z"/>
</svg>